# xmcd
#
# Track frame offsets: 
#        150
#        19697
#        34765
#        72617
#        102205
#        142341
#        172651
#        197306
#        215873
#        230061
#        248539
#
# Disc length: 3554 seconds
#
# Revision: 1
# Processed by: cddbd v1.5.2PL0 Copyright (c) Steve Scherf et al.
# Submitted via: ExactAudioCopy v0.99pb5
#
DISCID=9a0de00b
DTITLE=Tom Harrell - Number Five
DYEAR=2012
DGENRE=HighNote
TTITLE0=Blues'n'Boogie
TTITLE1=Right as Rain
TTITLE2=No. 5
TTITLE3=Journey to the Stars
TTITLE4=GT
TTITLE5=Present
TTITLE6=Star Eyes
TTITLE7=Preludium
TTITLE8=The Question
TTITLE9=Melody in B-flat
TTITLE10=A Blue Time
EXTD=YEAR: 2011
EXTT0=
EXTT1=
EXTT2=
EXTT3=
EXTT4=
EXTT5=
EXTT6=
EXTT7=
EXTT8=
EXTT9=
EXTT10=
PLAYORDER=
